<svg width="18" height="16" viewBox="0 0 18 16" fill="none" xmlns="http://www.w3.org/2000/svg">
<g clip-path="url(#clip0_110_167)">
<path d="M2.5 0C2.73344 0 2.93594 0.159947 2.9875 0.385172L3.125 0.99H16.9312C17.5656 0.99 18.0719 1.61648 17.8937 2.24792L16.2062 8.18916C16.0844 8.61609 15.6906 8.91 15.2437 8.91H4.94375L5.4 10.89H15.5C15.775 10.89 16 11.1128 16 11.385C16 11.6573 15.775 11.88 15.5 11.88H5C4.76562 11.88 4.56562 11.7191 4.5125 11.4933L2.10094 0.99H0.5C0.223875 0.99 0 0.768488 0 0.495C0 0.221636 0.223875 0 0.5 0H2.5ZM3.35313 1.98L4.69063 7.92H15.2437L16.9312 1.98H3.35313ZM4 14.1075C4 13.1515 4.78438 12.375 5.75 12.375C6.71562 12.375 7.5 13.1515 7.5 14.1075C7.5 15.0635 6.71562 15.84 5.75 15.84C4.78438 15.84 4 15.0635 4 14.1075ZM5.75 14.85C6.16563 14.85 6.5 14.519 6.5 14.1075C6.5 13.696 6.16563 13.365 5.75 13.365C5.33437 13.365 5 13.696 5 14.1075C5 14.519 5.33437 14.85 5.75 14.85ZM16 14.1075C16 15.0635 15.2156 15.84 14.25 15.84C13.2844 15.84 12.5 15.0635 12.5 14.1075C12.5 13.1515 13.2844 12.375 14.25 12.375C15.2156 12.375 16 13.1515 16 14.1075ZM14.25 13.365C13.8344 13.365 13.5 13.696 13.5 14.1075C13.5 14.519 13.8344 14.85 14.25 14.85C14.6656 14.85 15 14.519 15 14.1075C15 13.696 14.6656 13.365 14.25 13.365Z" fill="#61C454"/>
</g>
<defs>
<clipPath id="clip0_110_167">
<rect width="18" height="15.84" fill="white"/>
</clipPath>
</defs>
</svg>
