<svg width="88" height="88" viewBox="0 0 88 88" fill="none" xmlns="http://www.w3.org/2000/svg">
<path d="M38.9437 65.5564C44.77 58.5898 39.3103 49.6504 44.4913 43.6261C45.3448 42.5768 46.4 41.7094 47.5946 41.075C48.7891 40.4406 50.0987 40.0523 51.446 39.9328C52.7933 39.8134 54.1508 39.9653 55.4383 40.3797C56.7258 40.794 57.9172 41.4623 58.9419 42.3451C59.9667 43.2279 60.804 44.3071 61.4044 45.5191C62.0047 46.7311 62.356 48.0512 62.4373 49.4013C62.5187 50.7514 62.3284 52.1041 61.8779 53.3794C61.4274 54.6547 60.7257 55.8267 59.8143 56.8261C57.3311 59.8964 54.1238 62.3015 50.4809 63.8254C46.8379 65.3493 42.8734 65.9441 38.9437 65.5564V65.5564Z" stroke="#61C454" stroke-width="1.2" stroke-linecap="round" stroke-linejoin="round"/>
<path d="M60.8667 45.0671L83.7137 14.8061C84.3279 13.9753 84.7633 13.0262 84.9921 12.0187C85.221 11.0112 85.2385 9.96721 85.0434 8.95261C84.8484 7.93801 84.4451 6.97488 83.859 6.12405C83.2728 5.27322 82.5167 4.55317 81.6382 4.00939C80.7597 3.4656 79.778 3.1099 78.755 2.96474C77.7321 2.81959 76.6902 2.88813 75.6951 3.16604C74.7 3.44396 73.7733 3.9252 72.9736 4.57938C72.1739 5.23356 71.5186 6.04647 71.049 6.96675L54.439 40.3921" stroke="#61C454" stroke-width="1.2" stroke-linecap="round" stroke-linejoin="round"/>
<path d="M27.709 62.59C8.27568 57.6657 15.895 47.498 7.33334 47.498C-3.79866 47.498 7.01068 73.0474 25.2707 82.533C30.3226 84.8973 35.9767 85.6603 41.4746 84.7199C46.9725 83.7794 52.0515 81.1804 56.0303 77.2714L56.3273 76.9707" stroke="#61C454" stroke-width="1.2" stroke-linecap="round" stroke-linejoin="round"/>
</svg>
