<svg width="50" height="50" viewBox="0 0 50 50" fill="none" xmlns="http://www.w3.org/2000/svg">
<g clip-path="url(#clip0_107_377)">
<path d="M45.3125 10.9375H32.8125C31.0866 10.9375 29.6875 12.3366 29.6875 14.0625V23.4375C29.6875 25.1634 31.0866 26.5625 32.8125 26.5625H45.3125C47.0384 26.5625 48.4375 25.1634 48.4375 23.4375V14.0625C48.4375 12.3366 47.0384 10.9375 45.3125 10.9375Z" stroke="#61C454" stroke-width="1.2" stroke-linecap="round" stroke-linejoin="round"/>
<path d="M39.0625 1.5625C37.4049 1.5625 35.8152 2.22098 34.6431 3.39308C33.471 4.56518 32.8125 6.1549 32.8125 7.8125V10.9375H45.3125V7.8125C45.3125 6.1549 44.654 4.56518 43.4819 3.39308C42.3098 2.22098 40.7201 1.5625 39.0625 1.5625V1.5625Z" stroke="#61C454" stroke-width="1.2" stroke-linecap="round" stroke-linejoin="round"/>
<path d="M39.0625 18.0292C38.908 18.0292 38.7569 18.075 38.6285 18.1608C38.5 18.2467 38.3999 18.3687 38.3407 18.5115C38.2816 18.6542 38.2661 18.8113 38.2963 18.9628C38.3264 19.1144 38.4008 19.2536 38.5101 19.3629C38.6193 19.4721 38.7585 19.5465 38.9101 19.5767C39.0616 19.6068 39.2187 19.5913 39.3615 19.5322C39.5042 19.4731 39.6262 19.3729 39.7121 19.2445C39.7979 19.116 39.8437 18.9649 39.8437 18.8104C39.8437 18.6032 39.7614 18.4045 39.6149 18.258C39.4684 18.1115 39.2697 18.0292 39.0625 18.0292Z" stroke="#61C454" stroke-width="1.2" stroke-linecap="round" stroke-linejoin="round"/>
<path d="M32.8125 48.4375H17.1875L18.75 42.1875H31.25L32.8125 48.4375Z" stroke="#61C454" stroke-width="1.2" stroke-linecap="round" stroke-linejoin="round"/>
<path d="M12.5 48.4375H37.5" stroke="#61C454" stroke-width="1.2" stroke-linecap="round" stroke-linejoin="round"/>
<path d="M1.5625 35.9375H48.4375" stroke="#61C454" stroke-width="1.2" stroke-linecap="round" stroke-linejoin="round"/>
<path d="M48.4375 32.8125V35.9375C48.4375 37.5951 47.779 39.1848 46.6069 40.3569C45.4348 41.529 43.8451 42.1875 42.1875 42.1875H7.8125C6.1549 42.1875 4.56518 41.529 3.39308 40.3569C2.22098 39.1848 1.5625 37.5951 1.5625 35.9375V14.0625C1.5625 12.4049 2.22098 10.8152 3.39308 9.64308C4.56518 8.47098 6.1549 7.8125 7.8125 7.8125H23.4375" stroke="#61C454" stroke-width="1.2" stroke-linecap="round" stroke-linejoin="round"/>
</g>
<defs>
<clipPath id="clip0_107_377">
<rect width="50" height="50" fill="white"/>
</clipPath>
</defs>
</svg>
