<svg width="88" height="88" viewBox="0 0 88 88" fill="none" xmlns="http://www.w3.org/2000/svg">
<path d="M13.75 51.3333V78.8333C13.75 80.2919 14.3295 81.6909 15.3609 82.7223C16.3924 83.7538 17.7913 84.3333 19.25 84.3333H68.75C70.2087 84.3333 71.6076 83.7538 72.6391 82.7223C73.6705 81.6909 74.25 80.2919 74.25 78.8333V51.3333" stroke="#61C454" stroke-width="1.2" stroke-linecap="round" stroke-linejoin="round"/>
<path d="M2.75 46.3063L40.1097 8.94297C40.6204 8.43187 41.2269 8.02643 41.8944 7.74981C42.5619 7.47319 43.2774 7.33081 44 7.33081C44.7226 7.33081 45.4381 7.47319 46.1056 7.74981C46.7731 8.02643 47.3796 8.43187 47.8903 8.94297L85.25 46.3063" stroke="#61C454" stroke-width="1.2" stroke-linecap="round" stroke-linejoin="round"/>
<path d="M60.5 21.5563V12.8333H74.25V35.3063" stroke="#61C454" stroke-width="1.2" stroke-linecap="round" stroke-linejoin="round"/>
<path d="M58.41 43.4317C57.7594 42.7489 56.9769 42.2053 56.1099 41.8339C55.243 41.4625 54.3097 41.271 53.3665 41.271C52.4234 41.271 51.49 41.4625 50.6231 41.8339C49.7561 42.2053 48.9736 42.7489 48.323 43.4317L44 47.9013L39.677 43.4317C39.0264 42.7489 38.2439 42.2053 37.3769 41.8339C36.51 41.4625 35.5767 41.271 34.6335 41.271C33.6904 41.271 32.757 41.4625 31.8901 41.8339C31.0231 42.2053 30.2406 42.7489 29.59 43.4317C28.2485 44.8368 27.5 46.7048 27.5 48.6475C27.5 50.5902 28.2485 52.4582 29.59 53.8633L42.4637 67.177C42.6619 67.3849 42.9003 67.5504 43.1644 67.6634C43.4285 67.7765 43.7127 67.8348 44 67.8348C44.2873 67.8348 44.5715 67.7765 44.8356 67.6634C45.0997 67.5504 45.3381 67.3849 45.5363 67.177L58.41 53.8633C59.7515 52.4582 60.5 50.5902 60.5 48.6475C60.5 46.7048 59.7515 44.8368 58.41 43.4317V43.4317Z" stroke="#61C454" stroke-width="1.2" stroke-linecap="round" stroke-linejoin="round"/>
</svg>
