<svg width="84" height="84" viewBox="0 0 84 84" fill="none" xmlns="http://www.w3.org/2000/svg">
<g clip-path="url(#clip0_104_290)">
<path d="M54.25 68.25H8.75" stroke="#61C454" stroke-width="1.2" stroke-linecap="round" stroke-linejoin="round"/>
<path d="M31.5 74.375C31.7321 74.375 31.9546 74.4672 32.1187 74.6313C32.2828 74.7954 32.375 75.0179 32.375 75.25C32.375 75.4821 32.2828 75.7046 32.1187 75.8687C31.9546 76.0328 31.7321 76.125 31.5 76.125C31.2679 76.125 31.0454 76.0328 30.8813 75.8687C30.7172 75.7046 30.625 75.4821 30.625 75.25C30.625 75.0179 30.7172 74.7954 30.8813 74.6313C31.0454 74.4672 31.2679 74.375 31.5 74.375Z" stroke="#61C454" stroke-width="1.2" stroke-linecap="round" stroke-linejoin="round"/>
<path d="M54.25 54.25V75.25C54.25 77.1065 53.5125 78.887 52.1997 80.1997C50.887 81.5125 49.1065 82.25 47.25 82.25H15.75C13.8935 82.25 12.113 81.5125 10.8003 80.1997C9.4875 78.887 8.75 77.1065 8.75 75.25V8.75C8.75 6.89348 9.4875 5.11301 10.8003 3.80025C12.113 2.4875 13.8935 1.75 15.75 1.75H35" stroke="#61C454" stroke-width="1.2" stroke-linecap="round" stroke-linejoin="round"/>
<path d="M54.25 43.75C65.848 43.75 75.25 34.348 75.25 22.75C75.25 11.152 65.848 1.75 54.25 1.75C42.652 1.75 33.25 11.152 33.25 22.75C33.25 34.348 42.652 43.75 54.25 43.75Z" stroke="#61C454" stroke-width="1.2" stroke-linecap="round" stroke-linejoin="round"/>
<path d="M63.609 16.646L53.459 30.2015C53.2328 30.5019 52.9449 30.7504 52.6146 30.9302C52.2843 31.11 51.9193 31.2169 51.5443 31.2438C51.1692 31.2707 50.7927 31.2168 50.4401 31.086C50.0876 30.9551 49.7672 30.7501 49.5005 30.485L44.2505 25.235" stroke="#61C454" stroke-width="1.2" stroke-linecap="round" stroke-linejoin="round"/>
</g>
<defs>
<clipPath id="clip0_104_290">
<rect width="84" height="84" fill="white"/>
</clipPath>
</defs>
</svg>
