<svg width="50" height="50" viewBox="0 0 50 50" fill="none" xmlns="http://www.w3.org/2000/svg">
<path d="M46.875 3.26453L42.3792 3.76453C38.8529 4.15646 35.565 5.73686 33.0562 8.24578L12.625 28.677L21.4583 37.5145L41.8938 17.0833C44.4035 14.5751 45.984 11.2869 46.375 7.76036L46.875 3.26453Z" stroke="#61C454" stroke-width="1.2" stroke-linecap="round" stroke-linejoin="round"/>
<path d="M12.625 28.6771L5.07916 26.1604C4.82647 26.0765 4.59945 25.9293 4.41971 25.7329C4.23997 25.5364 4.1135 25.2973 4.05231 25.0381C3.99113 24.779 3.99728 24.5085 4.07017 24.2524C4.14306 23.9963 4.28027 23.7631 4.46875 23.575L4.95208 23.0917C6.59344 21.45 8.65952 20.2979 10.9188 19.7643C13.1781 19.2308 15.5414 19.3369 17.7437 20.0709L20.3583 20.9417L12.625 28.6771Z" stroke="#61C454" stroke-width="1.2" stroke-linecap="round" stroke-linejoin="round"/>
<path d="M12.625 28.6771L5.07916 26.1604C4.82647 26.0765 4.59945 25.9293 4.41971 25.7329C4.23997 25.5364 4.1135 25.2973 4.05231 25.0381C3.99113 24.779 3.99728 24.5085 4.07017 24.2524C4.14306 23.9963 4.28027 23.7631 4.46875 23.575L4.95208 23.0917C6.59344 21.45 8.65952 20.2979 10.9188 19.7643C13.1781 19.2308 15.5414 19.3369 17.7437 20.0709L20.3583 20.9417L12.625 28.6771Z" stroke="#61C454" stroke-width="1.2" stroke-linecap="round" stroke-linejoin="round"/>
<path d="M21.4583 37.5145L23.975 45.0604C24.0589 45.3131 24.2061 45.5401 24.4025 45.7198C24.599 45.8996 24.8382 46.026 25.0973 46.0872C25.3564 46.1484 25.6269 46.1423 25.883 46.0694C26.1391 45.9965 26.3723 45.8593 26.5604 45.6708L27.0458 45.1875C28.6871 43.5459 29.8389 41.4797 30.3721 39.2204C30.9053 36.9611 30.7988 34.598 30.0646 32.3958L29.1979 29.7916L21.4583 37.5145Z" stroke="#61C454" stroke-width="1.2" stroke-linecap="round" stroke-linejoin="round"/>
<path d="M21.4583 37.5145L23.975 45.0604C24.0589 45.3131 24.2061 45.5401 24.4025 45.7198C24.599 45.8996 24.8382 46.026 25.0973 46.0872C25.3564 46.1484 25.6269 46.1423 25.883 46.0694C26.1391 45.9965 26.3723 45.8593 26.5604 45.6708L27.0458 45.1875C28.6871 43.5459 29.8389 41.4797 30.3721 39.2204C30.9053 36.9611 30.7988 34.598 30.0646 32.3958L29.1979 29.7916L21.4583 37.5145Z" stroke="#61C454" stroke-width="1.2" stroke-linecap="round" stroke-linejoin="round"/>
<path d="M16.2063 38.6208C16.2071 39.2365 16.0862 39.8463 15.8506 40.4151C15.615 40.9839 15.2693 41.5006 14.8334 41.9354C13.0042 43.7645 3.79169 46.3541 3.79169 46.3541C3.79169 46.3541 6.38127 37.1354 8.21044 35.3125C9.01397 34.507 10.0834 34.0219 11.2188 33.9479" stroke="#61C454" stroke-width="1.2" stroke-linecap="round" stroke-linejoin="round"/>
</svg>
